<mxfile host="Electron" modified="2024-01-30T04:21:25.591Z" agent="Mozilla/5.0 (Macintosh; Intel Mac OS X 10_15_7) AppleWebKit/537.36 (KHTML, like Gecko) draw.io/23.0.2 Chrome/120.0.6099.109 Electron/28.1.0 Safari/537.36" etag="X0QLkkGQ4BWJS5KNa3dQ" version="23.0.2" type="device">
  <diagram id="C5RBs43oDa-KdzZeNtuy" name="Page-1">
    <mxGraphModel dx="447" dy="508" grid="1" gridSize="10" guides="1" tooltips="1" connect="1" arrows="1" fold="1" page="1" pageScale="1" pageWidth="827" pageHeight="1169" math="0" shadow="0">
      <root>
        <mxCell id="WIyWlLk6GJQsqaUBKTNV-0" />
        <mxCell id="WIyWlLk6GJQsqaUBKTNV-1" parent="WIyWlLk6GJQsqaUBKTNV-0" />
        <mxCell id="LZHCX-uINvSV32p4pxdz-26" style="edgeStyle=orthogonalEdgeStyle;rounded=0;orthogonalLoop=1;jettySize=auto;html=1;exitX=0.5;exitY=0;exitDx=0;exitDy=0;entryX=0.5;entryY=1;entryDx=0;entryDy=0;" edge="1" parent="WIyWlLk6GJQsqaUBKTNV-1" source="LZHCX-uINvSV32p4pxdz-9" target="LZHCX-uINvSV32p4pxdz-25">
          <mxGeometry relative="1" as="geometry" />
        </mxCell>
        <mxCell id="LZHCX-uINvSV32p4pxdz-9" value="problem_info" style="rounded=1;whiteSpace=wrap;html=1;fillColor=#d5e8d4;strokeColor=#82b366;" vertex="1" parent="WIyWlLk6GJQsqaUBKTNV-1">
          <mxGeometry x="160" y="80" width="110" height="40" as="geometry" />
        </mxCell>
        <mxCell id="LZHCX-uINvSV32p4pxdz-27" style="edgeStyle=orthogonalEdgeStyle;rounded=0;orthogonalLoop=1;jettySize=auto;html=1;exitX=0;exitY=0.5;exitDx=0;exitDy=0;entryX=1;entryY=0.5;entryDx=0;entryDy=0;" edge="1" parent="WIyWlLk6GJQsqaUBKTNV-1" source="LZHCX-uINvSV32p4pxdz-10" target="LZHCX-uINvSV32p4pxdz-9">
          <mxGeometry relative="1" as="geometry" />
        </mxCell>
        <mxCell id="LZHCX-uINvSV32p4pxdz-10" value="&lt;b&gt;class&lt;/b&gt;&lt;br&gt;ProblemIndex" style="rounded=1;whiteSpace=wrap;html=1;fillColor=#dae8fc;strokeColor=#6c8ebf;" vertex="1" parent="WIyWlLk6GJQsqaUBKTNV-1">
          <mxGeometry x="310" y="50" width="110" height="40" as="geometry" />
        </mxCell>
        <mxCell id="LZHCX-uINvSV32p4pxdz-28" style="edgeStyle=orthogonalEdgeStyle;rounded=0;orthogonalLoop=1;jettySize=auto;html=1;exitX=0;exitY=0.5;exitDx=0;exitDy=0;entryX=1;entryY=0.5;entryDx=0;entryDy=0;" edge="1" parent="WIyWlLk6GJQsqaUBKTNV-1" source="LZHCX-uINvSV32p4pxdz-11" target="LZHCX-uINvSV32p4pxdz-9">
          <mxGeometry relative="1" as="geometry" />
        </mxCell>
        <mxCell id="LZHCX-uINvSV32p4pxdz-29" style="edgeStyle=orthogonalEdgeStyle;rounded=0;orthogonalLoop=1;jettySize=auto;html=1;exitX=0.5;exitY=0;exitDx=0;exitDy=0;entryX=0.5;entryY=1;entryDx=0;entryDy=0;" edge="1" parent="WIyWlLk6GJQsqaUBKTNV-1" source="LZHCX-uINvSV32p4pxdz-11" target="LZHCX-uINvSV32p4pxdz-10">
          <mxGeometry relative="1" as="geometry" />
        </mxCell>
        <mxCell id="LZHCX-uINvSV32p4pxdz-11" value="_util" style="rounded=1;whiteSpace=wrap;html=1;fillColor=#dae8fc;strokeColor=#6c8ebf;" vertex="1" parent="WIyWlLk6GJQsqaUBKTNV-1">
          <mxGeometry x="310" y="110" width="110" height="40" as="geometry" />
        </mxCell>
        <mxCell id="LZHCX-uINvSV32p4pxdz-22" style="edgeStyle=orthogonalEdgeStyle;rounded=0;orthogonalLoop=1;jettySize=auto;html=1;exitX=0.5;exitY=0;exitDx=0;exitDy=0;entryX=0.5;entryY=1;entryDx=0;entryDy=0;" edge="1" parent="WIyWlLk6GJQsqaUBKTNV-1" source="LZHCX-uINvSV32p4pxdz-12" target="LZHCX-uINvSV32p4pxdz-9">
          <mxGeometry relative="1" as="geometry" />
        </mxCell>
        <mxCell id="LZHCX-uINvSV32p4pxdz-12" value="&lt;b&gt;_&lt;/b&gt;parsing" style="rounded=1;whiteSpace=wrap;html=1;fillColor=#dae8fc;strokeColor=#6c8ebf;" vertex="1" parent="WIyWlLk6GJQsqaUBKTNV-1">
          <mxGeometry x="160" y="140" width="110" height="40" as="geometry" />
        </mxCell>
        <mxCell id="LZHCX-uINvSV32p4pxdz-23" style="edgeStyle=orthogonalEdgeStyle;rounded=0;orthogonalLoop=1;jettySize=auto;html=1;exitX=0.5;exitY=0;exitDx=0;exitDy=0;entryX=0.5;entryY=1;entryDx=0;entryDy=0;" edge="1" parent="WIyWlLk6GJQsqaUBKTNV-1" source="LZHCX-uINvSV32p4pxdz-13" target="LZHCX-uINvSV32p4pxdz-12">
          <mxGeometry relative="1" as="geometry" />
        </mxCell>
        <mxCell id="LZHCX-uINvSV32p4pxdz-13" value="&lt;span&gt;_func_parsing&lt;/span&gt;" style="rounded=1;whiteSpace=wrap;html=1;fontStyle=0;fillColor=#dae8fc;strokeColor=#6c8ebf;" vertex="1" parent="WIyWlLk6GJQsqaUBKTNV-1">
          <mxGeometry x="160" y="200" width="110" height="40" as="geometry" />
        </mxCell>
        <mxCell id="LZHCX-uINvSV32p4pxdz-17" value="" style="edgeStyle=orthogonalEdgeStyle;rounded=0;orthogonalLoop=1;jettySize=auto;html=1;" edge="1" parent="WIyWlLk6GJQsqaUBKTNV-1" source="LZHCX-uINvSV32p4pxdz-14" target="LZHCX-uINvSV32p4pxdz-9">
          <mxGeometry relative="1" as="geometry" />
        </mxCell>
        <mxCell id="LZHCX-uINvSV32p4pxdz-14" value="&lt;span&gt;_leetcode_api&lt;/span&gt;" style="rounded=1;whiteSpace=wrap;html=1;fontStyle=0;fillColor=#dae8fc;strokeColor=#6c8ebf;" vertex="1" parent="WIyWlLk6GJQsqaUBKTNV-1">
          <mxGeometry x="10" y="80" width="110" height="40" as="geometry" />
        </mxCell>
        <mxCell id="LZHCX-uINvSV32p4pxdz-16" style="edgeStyle=orthogonalEdgeStyle;rounded=0;orthogonalLoop=1;jettySize=auto;html=1;exitX=0.5;exitY=0;exitDx=0;exitDy=0;entryX=0.5;entryY=1;entryDx=0;entryDy=0;" edge="1" parent="WIyWlLk6GJQsqaUBKTNV-1" source="LZHCX-uINvSV32p4pxdz-15" target="LZHCX-uINvSV32p4pxdz-14">
          <mxGeometry relative="1" as="geometry" />
        </mxCell>
        <mxCell id="LZHCX-uINvSV32p4pxdz-15" value="&lt;span&gt;_cookies&lt;/span&gt;" style="rounded=1;whiteSpace=wrap;html=1;fontStyle=0;fillColor=#dae8fc;strokeColor=#6c8ebf;" vertex="1" parent="WIyWlLk6GJQsqaUBKTNV-1">
          <mxGeometry x="10" y="140" width="110" height="40" as="geometry" />
        </mxCell>
        <mxCell id="LZHCX-uINvSV32p4pxdz-25" value="&lt;b&gt;main&lt;/b&gt;" style="rounded=1;whiteSpace=wrap;html=1;fillColor=#d5e8d4;strokeColor=#82b366;" vertex="1" parent="WIyWlLk6GJQsqaUBKTNV-1">
          <mxGeometry x="160" y="20" width="110" height="40" as="geometry" />
        </mxCell>
        <mxCell id="LZHCX-uINvSV32p4pxdz-32" value="&lt;p style=&quot;line-height: 120%;&quot;&gt;&lt;br&gt;&lt;/p&gt;" style="rounded=0;whiteSpace=wrap;html=1;fillColor=#f5f5f5;fontColor=#333333;strokeColor=#666666;verticalAlign=top;dashed=1;" vertex="1" parent="WIyWlLk6GJQsqaUBKTNV-1">
          <mxGeometry x="335" y="180" width="60" height="60" as="geometry" />
        </mxCell>
        <mxCell id="LZHCX-uINvSV32p4pxdz-30" value="public" style="rounded=1;whiteSpace=wrap;html=1;fillColor=#d5e8d4;strokeColor=#82b366;" vertex="1" parent="WIyWlLk6GJQsqaUBKTNV-1">
          <mxGeometry x="345" y="207" width="40" height="10" as="geometry" />
        </mxCell>
        <mxCell id="LZHCX-uINvSV32p4pxdz-31" value="private" style="rounded=1;whiteSpace=wrap;html=1;fillColor=#dae8fc;strokeColor=#6c8ebf;" vertex="1" parent="WIyWlLk6GJQsqaUBKTNV-1">
          <mxGeometry x="345" y="225" width="40" height="10" as="geometry" />
        </mxCell>
        <mxCell id="LZHCX-uINvSV32p4pxdz-34" value="KEY" style="text;html=1;strokeColor=none;fillColor=none;align=center;verticalAlign=middle;whiteSpace=wrap;rounded=0;fontStyle=4" vertex="1" parent="WIyWlLk6GJQsqaUBKTNV-1">
          <mxGeometry x="335" y="180" width="60" height="30" as="geometry" />
        </mxCell>
      </root>
    </mxGraphModel>
  </diagram>
</mxfile>
